<svg width="20.000000" height="20.000000" viewBox="0 0 20 20" fill="none" xmlns="http://www.w3.org/2000/svg" xmlns:xlink="http://www.w3.org/1999/xlink">
	<desc>
			Created with Pixso.
	</desc>
	<defs/>
	<path d="M15.34 3.45C15.1 3.45 14.87 3.53 14.67 3.66C14.47 3.79 14.32 3.98 14.23 4.2C14.14 4.41 14.11 4.66 14.16 4.89C14.2 5.12 14.32 5.34 14.49 5.5C14.65 5.67 14.87 5.79 15.1 5.83C15.33 5.88 15.58 5.85 15.79 5.76C16.01 5.67 16.2 5.52 16.33 5.32C16.46 5.12 16.54 4.89 16.54 4.66C16.54 4.34 16.41 4.03 16.18 3.81C15.96 3.58 15.65 3.45 15.34 3.45ZM19.94 5.87C19.92 5.05 19.76 4.22 19.48 3.45C19.22 2.78 18.83 2.17 18.32 1.68C17.82 1.16 17.21 0.77 16.54 0.52C15.77 0.23 14.95 0.07 14.12 0.06C13.06 0 12.72 0 10 0C7.28 0 6.94 0 5.88 0.06C5.04 0.07 4.22 0.23 3.45 0.52C2.78 0.77 2.17 1.16 1.67 1.68C1.16 2.17 0.77 2.78 0.53 3.45C0.23 4.22 0.07 5.04 0.05 5.87C0 6.93 0 7.27 0 10C0 12.72 0 13.06 0.05 14.12C0.07 14.95 0.23 15.77 0.53 16.54C0.77 17.21 1.16 17.82 1.67 18.31C2.17 18.83 2.78 19.22 3.45 19.47C4.22 19.76 5.04 19.92 5.88 19.93C6.94 20 7.28 20 10 20C12.72 20 13.06 20 14.12 19.93C14.95 19.92 15.77 19.76 16.54 19.47C17.21 19.22 17.82 18.83 18.32 18.31C18.83 17.82 19.22 17.21 19.48 16.54C19.76 15.77 19.92 14.94 19.94 14.12C19.94 13.06 20 12.72 20 10C20 7.27 20 6.93 19.94 5.87ZM18.14 14C18.13 14.63 18.01 15.26 17.79 15.85C17.64 16.29 17.38 16.68 17.04 17C16.72 17.34 16.33 17.59 15.9 17.75C15.3 17.97 14.67 18.09 14.04 18.1C13.04 18.14 12.67 18.16 10.04 18.16C7.4 18.16 7.03 18.16 6.03 18.1C5.38 18.11 4.72 18.01 4.09 17.79C3.68 17.62 3.31 17.37 3 17.04C2.66 16.72 2.41 16.33 2.26 15.89C2.01 15.29 1.88 14.65 1.85 14C1.85 13 1.79 12.62 1.79 10C1.79 7.37 1.79 7 1.85 6C1.86 5.35 1.98 4.7 2.21 4.1C2.38 3.67 2.65 3.3 3 3C3.3 2.65 3.67 2.38 4.09 2.2C4.7 1.97 5.35 1.86 6 1.85C7 1.85 7.37 1.79 10 1.79C12.63 1.79 13 1.79 14 1.85C14.63 1.86 15.26 1.98 15.86 2.2C16.31 2.36 16.72 2.64 17.04 3C17.37 3.3 17.63 3.68 17.79 4.1C18.02 4.7 18.13 5.35 18.14 6C18.19 7 18.2 7.37 18.2 10C18.2 12.62 18.19 13 18.14 14ZM10 4.87C8.98 4.87 7.99 5.17 7.15 5.73C6.31 6.3 5.65 7.1 5.26 8.04C4.88 8.98 4.78 10.01 4.97 11C5.17 12 5.66 12.91 6.38 13.63C7.1 14.34 8.01 14.83 9.01 15.03C10 15.22 11.03 15.12 11.97 14.73C12.91 14.35 13.71 13.69 14.27 12.84C14.83 12 15.14 11.01 15.14 10C15.14 9.32 15 8.65 14.75 8.03C14.49 7.4 14.11 6.84 13.63 6.36C13.15 5.88 12.59 5.51 11.96 5.25C11.34 4.99 10.67 4.86 10 4.87ZM10 13.33C9.34 13.33 8.69 13.13 8.14 12.76C7.6 12.4 7.17 11.88 6.92 11.27C6.67 10.66 6.6 9.99 6.73 9.35C6.86 8.7 7.17 8.11 7.64 7.64C8.11 7.17 8.7 6.86 9.35 6.73C9.99 6.6 10.66 6.67 11.27 6.92C11.88 7.17 12.4 7.6 12.76 8.14C13.13 8.69 13.33 9.34 13.33 10C13.33 10.43 13.24 10.87 13.07 11.27C12.9 11.67 12.66 12.04 12.35 12.35C12.04 12.66 11.67 12.9 11.27 13.07C10.87 13.24 10.43 13.33 10 13.33Z" fill="#F5EFDB" fill-opacity="1.000000" fill-rule="nonzero"/>
</svg>
